<?xml version="1.0" encoding="UTF-8" standalone="no"?>
<!-- Generator: Adobe Illustrator 19.0.0, SVG Export Plug-In . SVG Version: 6.00 Build 0)  -->

<svg
   xmlns:dc="http://purl.org/dc/elements/1.1/"
   xmlns:cc="http://creativecommons.org/ns#"
   xmlns:rdf="http://www.w3.org/1999/02/22-rdf-syntax-ns#"
   xmlns:svg="http://www.w3.org/2000/svg"
   xmlns="http://www.w3.org/2000/svg"
   xmlns:sodipodi="http://sodipodi.sourceforge.net/DTD/sodipodi-0.dtd"
   xmlns:inkscape="http://www.inkscape.org/namespaces/inkscape"
   version="1.1"
   id="Layer_1"
   x="0px"
   y="0px"
   viewBox="0 0 504.123 504.123"
   style="enable-background:new 0 0 504.123 504.123;"
   xml:space="preserve"
   sodipodi:docname="logo.svg"
   inkscape:version="0.92.4 (5da689c313, 2019-01-14)"
   inkscape:export-filename="D:\Projects\Unity Projects\LD47\Assets\Textures\logo.png"
   inkscape:export-xdpi="150"
   inkscape:export-ydpi="150"><metadata
   id="metadata290"><rdf:RDF><cc:Work
       rdf:about=""><dc:format>image/svg+xml</dc:format><dc:type
         rdf:resource="http://purl.org/dc/dcmitype/StillImage" /><dc:title></dc:title></cc:Work></rdf:RDF></metadata><defs
   id="defs288" /><sodipodi:namedview
   pagecolor="#ffffff"
   bordercolor="#666666"
   borderopacity="1"
   objecttolerance="10"
   gridtolerance="10"
   guidetolerance="10"
   inkscape:pageopacity="0"
   inkscape:pageshadow="2"
   inkscape:window-width="1920"
   inkscape:window-height="1017"
   id="namedview286"
   showgrid="false"
   inkscape:zoom="0.93627947"
   inkscape:cx="236.9534"
   inkscape:cy="272.80942"
   inkscape:window-x="-8"
   inkscape:window-y="-8"
   inkscape:window-maximized="1"
   inkscape:current-layer="Layer_1" />


<g
   id="g221"
   style="fill:#000000">
	<path
   style="fill:#000000"
   d="M227.942,148.968c2.938,0,5.309-2.387,5.309-5.325l0.016-46.781l14.588,14.596   c3.119,3.119,8.168,3.119,11.28,0.008c3.119-3.119,3.119-8.168,0-11.288L227.95,68.986l-31.201,31.193   c-3.111,3.111-3.111,8.168,0,11.28c3.119,3.119,8.184,3.119,11.296,0l14.604-14.596l-0.016,46.781   C222.633,146.582,224.996,148.968,227.942,148.968z"
   id="path215" />
	<path
   style="fill:#000000"
   d="M276.196,86.449c-2.938,0-5.309,2.387-5.309,5.325l-0.016,46.781l-14.588-14.596   c-3.119-3.119-8.184-3.119-11.296-0.008c-3.111,3.119-3.111,8.168,0,11.288l31.201,31.193l31.185-31.193   c3.111-3.111,3.111-8.168,0-11.28c-3.111-3.119-8.168-3.119-11.28,0l-14.604,14.596l0.016-46.781   C281.505,88.828,279.142,86.449,276.196,86.449z"
   id="path217" />
	<polygon
   style="fill:#000000"
   points="384,402.723 120.115,402.723 120.115,138.831 177.231,138.831 177.231,154.585    135.869,154.585 135.869,386.97 368.246,386.97 368.246,154.585 326.892,154.585 326.892,138.831 384,138.831  "
   id="polygon219" />
</g>

<g
   id="g253"
   style="fill:#000000">
	<path
   style="fill:#000000"
   d="M210.219,301.458c0,8.696-7.05,15.754-15.754,15.754h-15.754c-8.696,0-15.754-7.058-15.754-15.754   v-60.062c0-8.696,7.058-15.754,15.754-15.754h15.754c8.704,0,15.754,7.058,15.754,15.754V301.458z"
   id="path229" />
	<path
   style="fill:#000000"
   d="M184.619,366.931c0,4.08-3.308,7.389-7.389,7.389l0,0c-4.08,0-7.389-3.308-7.389-7.389v-59.077   c0-4.08,3.308-7.389,7.389-7.389l0,0c4.08,0,7.389,3.308,7.389,7.389V366.931z"
   id="path231" />
	<path
   style="fill:#000000"
   d="M202.342,366.931c0,4.08-3.308,7.389-7.389,7.389l0,0c-4.08,0-7.389-3.308-7.389-7.389v-59.077   c0-4.08,3.308-7.389,7.389-7.389l0,0c4.08,0,7.389,3.308,7.389,7.389V366.931z"
   id="path233" />
	<path
   style="fill:#000000"
   d="M207.013,207.919c0,8.696-7.05,15.754-15.754,15.754h-9.358c-8.696,0-15.754-7.058-15.754-15.754   v-9.358c0-8.696,7.058-15.754,15.754-15.754h9.358c8.704,0,15.754,7.058,15.754,15.754V207.919z"
   id="path235" />
	<path
   style="fill:#000000"
   d="M275.692,301.458c0,8.696-7.05,15.754-15.754,15.754h-15.754c-8.696,0-15.754-7.058-15.754-15.754   v-60.062c0-8.696,7.058-15.754,15.754-15.754h15.754c8.704,0,15.754,7.058,15.754,15.754V301.458z"
   id="path237" />
	<path
   style="fill:#000000"
   d="M250.092,366.931c0,4.08-3.308,7.389-7.389,7.389l0,0c-4.08,0-7.389-3.308-7.389-7.389v-59.077   c0-4.08,3.308-7.389,7.389-7.389l0,0c4.08,0,7.389,3.308,7.389,7.389V366.931z"
   id="path239" />
	<path
   style="fill:#000000"
   d="M267.815,366.931c0,4.08-3.308,7.389-7.389,7.389l0,0c-4.08,0-7.389-3.308-7.389-7.389v-59.077   c0-4.08,3.308-7.389,7.389-7.389l0,0c4.08,0,7.389,3.308,7.389,7.389V366.931z"
   id="path241" />
	<path
   style="fill:#000000"
   d="M272.494,207.919c0,8.696-7.05,15.754-15.754,15.754h-9.358c-8.696,0-15.754-7.058-15.754-15.754   v-9.358c0-8.696,7.058-15.754,15.754-15.754h9.358c8.704,0,15.754,7.058,15.754,15.754V207.919z"
   id="path243" />
	<path
   style="fill:#000000"
   d="M341.165,301.458c0,8.696-7.05,15.754-15.754,15.754h-15.754c-8.696,0-15.754-7.058-15.754-15.754   v-60.062c0-8.696,7.058-15.754,15.754-15.754h15.754c8.704,0,15.754,7.058,15.754,15.754V301.458z"
   id="path245" />
	<path
   style="fill:#000000"
   d="M315.565,366.931c0,4.08-3.308,7.389-7.389,7.389l0,0c-4.08,0-7.389-3.308-7.389-7.389v-59.077   c0-4.08,3.308-7.389,7.389-7.389l0,0c4.08,0,7.389,3.308,7.389,7.389V366.931z"
   id="path247" />
	<path
   style="fill:#000000"
   d="M333.288,366.931c0,4.08-3.308,7.389-7.389,7.389l0,0c-4.08,0-7.389-3.308-7.389-7.389v-59.077   c0-4.08,3.308-7.389,7.389-7.389l0,0c4.08,0,7.389,3.308,7.389,7.389V366.931z"
   id="path249" />
	<path
   style="fill:#000000"
   d="M337.967,207.919c0,8.696-7.05,15.754-15.754,15.754h-9.358c-8.696,0-15.754-7.058-15.754-15.754   v-9.358c0-8.696,7.058-15.754,15.754-15.754h9.358c8.704,0,15.754,7.058,15.754,15.754V207.919z"
   id="path251" />
</g>
<g
   id="g255"
   style="fill:#000000">
</g>
<g
   id="g257"
   style="fill:#000000">
</g>
<g
   id="g259"
   style="fill:#000000">
</g>
<g
   id="g261"
   style="fill:#000000">
</g>
<g
   id="g263"
   style="fill:#000000">
</g>
<g
   id="g265"
   style="fill:#000000">
</g>
<g
   id="g267"
   style="fill:#000000">
</g>
<g
   id="g269"
   style="fill:#000000">
</g>
<g
   id="g271"
   style="fill:#000000">
</g>
<g
   id="g273"
   style="fill:#000000">
</g>
<g
   id="g275"
   style="fill:#000000">
</g>
<g
   id="g277"
   style="fill:#000000">
</g>
<g
   id="g279"
   style="fill:#000000">
</g>
<g
   id="g281"
   style="fill:#000000">
</g>
<g
   id="g283"
   style="fill:#000000">
</g>
</svg>